<?xml version="1.0" encoding="UTF-8" standalone="no"?>
<!-- Created with Inkscape (http://www.inkscape.org/) -->

<svg
   xmlns:dc="http://purl.org/dc/elements/1.1/"
   xmlns:cc="http://creativecommons.org/ns#"
   xmlns:rdf="http://www.w3.org/1999/02/22-rdf-syntax-ns#"
   xmlns:svg="http://www.w3.org/2000/svg"
   xmlns="http://www.w3.org/2000/svg"
   xmlns:sodipodi="http://sodipodi.sourceforge.net/DTD/sodipodi-0.dtd"
   xmlns:inkscape="http://www.inkscape.org/namespaces/inkscape"
   width="400"
   height="550"
   viewBox="0 0 105.83333 145.52084"
   version="1.1"
   id="svg8"
   inkscape:version="0.92.3 (2405546, 2018-03-11)"
   sodipodi:docname="logo.svg">
  <defs
     id="defs2" />
  <sodipodi:namedview
     id="base"
     pagecolor="#ffffff"
     bordercolor="#666666"
     borderopacity="1.0"
     inkscape:pageopacity="0.0"
     inkscape:pageshadow="2"
     inkscape:zoom="0.49497475"
     inkscape:cx="199.99459"
     inkscape:cy="136.7785"
     inkscape:document-units="mm"
     inkscape:current-layer="layer1-6"
     showgrid="false"
     units="px"
     inkscape:window-width="1366"
     inkscape:window-height="705"
     inkscape:window-x="-8"
     inkscape:window-y="-8"
     inkscape:window-maximized="1" />
  <metadata
     id="metadata5">
    <rdf:RDF>
      <cc:Work
         rdf:about="">
        <dc:format>image/svg+xml</dc:format>
        <dc:type
           rdf:resource="http://purl.org/dc/dcmitype/StillImage" />
        <dc:title></dc:title>
      </cc:Work>
    </rdf:RDF>
  </metadata>
  <g
     inkscape:label="Capa 1"
     inkscape:groupmode="layer"
     id="layer1"
     transform="translate(0,-151.47915)">
    <g
       id="layer1-6"
       inkscape:label="Capa 1"
       transform="matrix(0.98714809,0,0,1.0703101,-39.965544,42.948294)">
      <path
         id="path3738-5"
         style="fill:#efdba5;stroke-width:0.08466667"
         d="m 65.561142,107.83928 c -18.006714,0 -20.370847,0.0147 -20.441848,0.12698 -0.08832,0.13972 -0.119619,98.1886 -0.03141,98.41846 0.04656,0.12133 1.300105,0.13374 13.334917,0.13374 h 13.283614 v -31.27064 c 0,-29.39711 0.04331,-39.9343 0.163854,-39.9343 0.06154,0 -0.107737,-0.97204 6.81901,39.14586 3.867867,22.4017 5.559046,32.01403 5.641674,32.06632 0.06643,0.0421 4.490249,0.0754 10.123817,0.0763 11.12556,0.001 10.2012,0.0551 10.30599,-0.60015 0.0551,-0.34456 6.35301,-36.83021 10.33845,-59.89301 1.05417,-6.10024 1.95193,-11.12771 1.99503,-11.17191 0.0481,-0.0493 0.0785,13.76267 0.0785,35.74152 0,32.58677 0.0122,35.82653 0.13401,35.87333 0.19329,0.0742 26.22099,0.0608 26.33533,-0.0135 0.1149,-0.0747 0.20221,-98.5137 0.0874,-98.62849 -0.0924,-0.0924 -40.66072,-0.092 -40.75282,5e-4 -0.0666,0.0668 0.11317,0.24744 0.43397,0.43695 0.13168,0.0778 -0.0119,1.10649 -1.76416,12.65802 -1.04895,6.91515 -2.462246,16.2496 -3.140958,20.74328 -3.0772,20.37401 -3.987418,26.25272 -4.064918,26.25272 -0.08299,-5e-4 -0.299604,-1.53105 -2.964534,-20.96104 -1.663999,-12.13224 -4.65744,-33.91891 -5.070546,-36.90366 -0.160257,-1.15794 -0.334585,-2.14838 -0.387384,-2.20117 -0.07101,-0.071 -5.394693,-0.0961 -20.457029,-0.0961 z m 77.250178,99.78435 c -0.0493,-1.7e-4 -0.10561,0.005 -0.16962,0.0111 l -0.28059,0.0266 -0.0246,0.69864 -0.0246,0.69864 h -2.39916 c -2.67047,0 -2.62099,-0.0111 -2.57349,0.56537 l 0.0262,0.32349 2.4557,0.0425 2.45518,0.042 0.0236,0.6349 c 0.0178,0.47248 0.0598,0.66243 0.16438,0.74112 h 5.4e-4 c 0.1905,0.1435 0.40716,0.13327 0.56746,-0.027 0.11224,-0.11221 0.13297,-0.4025 0.13297,-1.85257 0,-1.66332 -0.009,-1.90356 -0.35388,-1.90472 z m -56.891566,0.33604 c -2.20876,0.003 -3.169678,0.17535 -4.437121,0.79761 -1.234143,0.6059 -2.25381,1.66135 -2.801729,2.90029 -0.309465,0.69976 -0.689547,2.09155 -0.787857,2.88676 -0.294461,2.38194 -0.32303,7.7395 -0.0534,10.00832 0.151404,1.27394 0.525659,2.8004 0.874233,3.56802 0.315067,0.69382 0.806713,1.36916 1.3459,1.84823 0.520408,0.46239 1.758614,1.06043 2.526373,1.22008 0.802215,0.16679 2.950599,0.17268 3.71784,0.0101 0.92036,-0.19497 1.604341,-0.55959 2.211231,-1.17855 0.589528,-0.60126 0.629333,-0.58982 0.631332,0.18878 0.0024,0.72704 -0.11601,0.69332 2.407018,0.69332 1.77761,0 2.249677,-0.0236 2.325874,-0.11539 0.0699,-0.0838 0.08961,-1.76463 0.07381,-6.1593 l -0.02147,-6.04439 -3.973831,-0.0222 c -3.122902,-0.0173 -3.988662,0.001 -4.041881,0.085 -0.03724,0.0587 -0.06773,1.00995 -0.06858,2.11426 -0.0016,2.35557 -0.08814,2.1833 1.093576,2.1833 h 0.767439 v 0.88163 c 0,1.00145 -0.164567,1.99795 -0.409373,2.47781 -0.208812,0.40932 -0.626984,0.61994 -1.231776,0.61994 -0.862313,0 -1.32751,-0.56652 -1.495618,-1.82119 -0.05969,-0.44344 -0.07998,-2.54472 -0.05968,-6.09508 0.03397,-5.94041 0.02324,-5.81722 0.547048,-6.32491 0.27724,-0.26871 0.313895,-0.27907 0.967937,-0.27907 0.657497,0 0.687372,0.009 0.921347,0.27038 0.337211,0.37741 0.436293,0.765 0.483182,1.8883 0.02235,0.53552 0.07928,1.02139 0.126686,1.07958 0.06596,0.0809 0.777262,0.10573 3.028925,0.10573 2.541517,0 2.95729,-0.0177 3.05039,-0.12987 0.243281,-0.29314 -0.103695,-3.0724 -0.513547,-4.11216 -0.09281,-0.23548 -0.327383,-0.66092 -0.520873,-0.94584 -1.269241,-1.86903 -3.157501,-2.60349 -6.683425,-2.59949 z m 22.236896,0.32783 c -1.54901,-2.5e-4 -3.09747,0.0375 -3.20062,0.11443 -0.13085,0.0976 -0.14368,0.78324 -0.16438,8.82687 -0.0201,7.81131 -0.0369,8.75118 -0.15915,9.01661 -0.21626,0.46957 -0.44365,0.62049 -0.9962,0.66049 -0.61215,0.0443 -0.9902,-0.12931 -1.15849,-0.53206 -0.25334,-0.60636 -0.28969,-1.84578 -0.29054,-9.84078 -8e-4,-7.88317 -0.004,-8.0633 -0.16437,-8.149 -0.25514,-0.13651 -6.112115,-0.11858 -6.300756,0.0193 -0.137748,0.10071 -0.144614,0.6262 -0.116214,8.6574 0.02943,8.33694 0.03479,8.5698 0.209397,9.3541 0.358761,1.6114 0.815697,2.50454 1.691926,3.30537 0.75392,0.68904 1.935168,1.19327 3.451907,1.47356 v -5e-4 c 0.50829,0.0942 1.18417,0.11848 2.70907,0.099 1.87849,-0.024 2.09503,-0.0426 2.86769,-0.24816 1.32251,-0.35189 2.17959,-0.81038 2.93941,-1.57254 0.94279,-0.9457 1.39941,-1.8419 1.79453,-3.52264 0.17493,-0.74394 0.17943,-0.95953 0.20783,-9.10014 0.0273,-7.83139 0.0205,-8.34518 -0.11726,-8.44592 -0.1053,-0.0768 -1.65476,-0.1151 -3.20378,-0.1154 z m 12.29893,0.005 c -3.38358,0.005 -6.75825,0.0413 -6.82215,0.10525 -0.078,0.078 -0.10156,2.69086 -0.10156,11.24627 0,6.12973 0.0258,11.17054 0.0571,11.20184 0.0313,0.0313 3.22206,0.0471 7.09071,0.0352 l 7.03416,-0.0212 v -2.62507 -2.6246 l -3.79061,-0.0217 -3.7906,-0.0222 0.023,-1.79801 0.023,-1.79849 3.38647,-0.0425 3.38648,-0.042 0.0225,-2.40298 c 0.0159,-1.70202 -0.006,-2.43666 -0.0738,-2.51886 -0.0787,-0.0948 -0.70905,-0.11588 -3.43202,-0.11588 h -3.33567 l 0.023,-1.5875 0.0225,-1.5875 3.61629,-0.0222 3.61576,-0.0222 0.0508,-0.27424 c 0.0278,-0.15084 0.0388,-1.31382 0.0246,-2.58452 -0.0218,-1.94201 -0.0461,-2.32303 -0.15286,-2.39043 -0.10085,-0.0637 -3.49353,-0.0911 -6.87711,-0.0864 z m -70.604439,0.003 c -2.930989,0 -4.543726,0.0306 -4.650705,0.0879 -0.160667,0.086 -0.163853,0.30068 -0.163853,11.2535 0,8.85355 0.02184,11.17471 0.105745,11.20861 0.152603,0.0619 5.866086,0.0662 6.025919,0.005 0.120675,-0.0463 0.133491,-0.76784 0.133491,-7.29537 0,-3.98423 0.02014,-7.22417 0.0445,-7.19977 0.04491,0.0449 0.504849,2.58181 0.971602,5.36023 0.299668,1.78385 0.675774,3.94059 1.019239,5.8421 0.134579,0.74507 0.303007,1.75058 0.374297,2.23448 0.07129,0.48387 0.172592,0.9313 0.225102,0.9946 0.133684,0.16088 4.668264,0.16976 4.793618,0.009 0.04544,-0.0582 0.129387,-0.4106 0.186887,-0.78313 0.0575,-0.37254 0.275183,-1.6491 0.483706,-2.83655 0.492034,-2.8019 0.63867,-3.65028 1.001441,-5.7996 0.165053,-0.97791 0.396483,-2.31112 0.514593,-2.96306 0.118111,-0.65193 0.249742,-1.39074 0.292632,-1.64157 0.04289,-0.25083 0.09833,-0.47599 0.123021,-0.50068 0.02469,-0.0247 0.04502,3.23693 0.04502,7.24853 v 7.29392 l 0.190551,0.0463 c 0.104775,0.0258 1.485968,0.0362 3.069235,0.0232 l 2.878685,-0.0237 0.02147,-11.16708 c 0.01573,-8.18235 -0.0045,-11.1978 -0.07434,-11.282 -0.07808,-0.0941 -0.894161,-0.11446 -4.508315,-0.11346 -2.427407,7.4e-4 -4.466261,0.0347 -4.530302,0.0753 -0.07304,0.0463 -0.190865,0.54264 -0.316189,1.33209 -0.402586,2.53598 -0.79533,5.10446 -0.99987,6.53494 -0.295671,2.0678 -0.744816,4.85111 -0.777386,4.81851 -0.01507,-0.0151 -0.215464,-1.37823 -0.445492,-3.02919 -0.230028,-1.65096 -0.62209,-4.4659 -0.871091,-6.25539 -0.283139,-2.03483 -0.494878,-3.29571 -0.564848,-3.36571 -0.08993,-0.0899 -0.992015,-0.11202 -4.598355,-0.11202 z m 22.998584,0 c -1.917647,0 -3.07664,0.0322 -3.18074,0.0879 -0.160669,0.086 -0.163853,0.30017 -0.163853,11.20136 0,8.53114 0.02356,11.13736 0.101558,11.21536 0.07537,0.0754 0.912818,0.1014 3.243035,0.1014 2.330214,0 3.167139,-0.026 3.242509,-0.1014 0.07799,-0.078 0.101558,-2.68422 0.101558,-11.21536 0,-10.90119 -0.0032,-11.11536 -0.163853,-11.20136 -0.1041,-0.0557 -1.262571,-0.0879 -3.180214,-0.0879 z m 59.897455,0 c -2.72007,0 -3.13318,0.0171 -3.24932,0.13326 -0.11964,0.1196 -0.13349,1.25212 -0.13349,11.20137 0,8.49583 0.0241,11.09197 0.10208,11.16997 0.079,0.0772 1.68422,0.10143 6.7096,0.10043 3.63454,-7.4e-4 6.65646,-0.0321 6.71536,-0.0695 0.0837,-0.0529 0.10221,-0.63948 0.0848,-2.64439 l -0.0225,-2.57679 -3.42887,-0.042 -3.4294,-0.0425 -0.0215,-8.50096 c -0.0155,-6.11032 -0.0482,-8.53243 -0.11621,-8.61443 -0.0762,-0.0918 -0.7016,-0.11443 -3.21058,-0.11443 z m 7.22105,3.47774 c -1.21014,0.003 -1.84487,0.19899 -2.36985,0.69719 l -0.27536,0.2612 v 0.98784 c 0,0.86368 0.0219,1.01563 0.17171,1.20608 0.26552,0.33755 1.01078,0.65925 1.7092,0.73775 0.78335,0.0881 2.01488,0.0252 2.56982,-0.13085 0.91622,-0.25762 1.48287,-0.94385 1.46997,-1.78111 -0.0127,-0.82446 -0.37158,-1.3485 -1.17524,-1.71641 -0.39549,-0.18108 -0.62153,-0.21777 -1.54482,-0.25107 -0.19773,-0.007 -0.38255,-0.0111 -0.55543,-0.0106 z m 0.0168,0.93328 c 0.15208,-7.4e-4 0.30911,10e-4 0.46643,0.006 0.88549,0.0279 1.1287,0.0655 1.45636,0.22451 0.45283,0.21977 0.6288,0.53451 0.546,0.97577 -0.0682,0.36331 -0.26965,0.5439 -0.77581,0.69623 -0.26721,0.0804 -0.7892,0.11932 -1.5532,0.11732 -1.45647,-0.005 -1.92072,-0.13633 -2.15208,-0.6098 -0.30777,-0.62986 0.0591,-1.15553 0.93286,-1.33692 0.21464,-0.0448 0.62321,-0.0714 1.07944,-0.0734 z m 1.58828,3.73122 c -0.37111,-5e-4 -0.82526,0.001 -1.37731,0.006 l -2.83052,0.0227 -0.0272,0.33508 c -0.0411,0.50411 0.0804,0.55379 1.35585,0.55379 h 1.08468 v 0.50406 c 0,0.92824 -0.157,1.05721 -1.39249,1.14621 -0.97251,0.0701 -1.06322,0.11977 -1.06322,0.58228 0,0.20015 0.0278,0.39099 0.0612,0.42439 v 5e-4 c 0.0334,0.0334 0.19515,0.0412 0.35964,0.0174 0.16448,-0.0238 0.6229,-0.068 1.01872,-0.0985 0.75233,-0.058 0.93761,-0.11681 1.24277,-0.39446 l 0.18427,-0.16802 0.23923,0.22258 c 0.30454,0.28367 0.79304,0.41569 1.36318,0.36839 0.66638,-0.0553 1.13849,-0.46799 1.29198,-1.12979 0.0952,-0.41083 0.10313,-2.15552 0.0105,-2.30159 -0.0397,-0.0628 -0.40794,-0.089 -1.52126,-0.0908 z m -1.03285,0.91735 h 0.88941 0.88889 v 0.59918 c 0,0.54937 -0.0207,0.61948 -0.24761,0.84637 -0.27654,0.27656 -0.63049,0.31953 -1.06688,0.1294 -0.33234,-0.1448 -0.46381,-0.44788 -0.46381,-1.07089 z m -0.38058,3.25998 c -1.39566,0 -1.93387,0.12941 -2.47874,0.5958 l -0.35807,0.30611 v 1.04481 1.0453 l 0.34184,0.29211 c 0.19054,0.16308 0.55481,0.35643 0.82503,0.43743 0.26629,0.0798 0.57982,0.17692 0.69624,0.21582 0.11642,0.0389 0.53548,0.0723 0.93129,0.0753 0.89323,0.006 1.98819,-0.28327 2.44262,-0.64456 0.89552,-0.71202 0.91724,-2.08314 0.0445,-2.80614 -0.52484,-0.4348 -1.07862,-0.562 -2.44471,-0.562 z m -0.0424,0.93087 c 1.75819,-1.5e-4 2.32798,0.24745 2.32798,1.01006 0,0.43082 -0.13572,0.6162 -0.60255,0.8232 -0.24652,0.10925 -0.6308,0.16575 -1.31239,0.19265 -1.42879,0.0565 -2.19166,-0.0945 -2.52794,-0.49972 -0.17511,-0.21103 -0.15713,-0.84205 0.0298,-1.04868 0.32132,-0.35514 0.85523,-0.47751 2.08506,-0.47751 z m -87.84094,12.18389 c 0.01907,0.0204 0.03798,0.0409 0.05706,0.0613 0.037,-5e-4 0.07475,10e-4 0.112027,0.002 l -5.36e-4,-0.055 z m -0.06072,0.0159 c 0.0039,0.004 0.0076,0.008 0.01152,0.0121 0.0048,0.002 0.0084,0.003 0.01309,0.005 -0.0083,-0.006 -0.0163,-0.0114 -0.02461,-0.0169 z m 30.599691,0.12939 c 0.01932,0.023 0.04102,0.0481 0.04711,0.0613 0.01514,0.0117 0.01335,0.01 0.03088,0.0232 -0.01337,-0.005 -0.01849,-0.005 -0.04031,-0.0135 l -5.36e-4,-4.9e-4 c -0.03598,-0.0136 -0.08682,-0.0337 -0.06649,-0.0227 0.04275,0.0232 0.09331,0.0365 0.141345,0.0526 -0.03473,-0.0381 -0.07165,-0.0719 -0.112028,-0.10042 z m -1.503471,0.0681 c -0.02069,0.005 0.0088,0.0961 0.103129,0.0932 -0.03633,-0.036 -0.07691,-0.079 -0.09056,-0.0888 -0.0053,-0.004 -0.0094,-0.005 -0.01257,-0.004 z m -28.897817,5e-4 c 0.01137,0.0111 0.0227,0.0222 0.03403,0.0333 v -0.0188 c -0.01139,-0.005 -0.02265,-0.01 -0.03403,-0.0145 z"
         inkscape:connector-curvature="0" />
      <path
         id="path3736-5"
         style="fill:#fdfd24;stroke-width:0.08466667"
         d="m 109.43031,107.98509 c -3.65088,0.004 -5.93291,0.0131 -5.96572,0.0256 -0.0927,0.0353 -0.0774,0.0842 0.0686,0.22016 0.13657,0.12738 0.1746,0.23591 0.1403,0.39977 -0.0702,0.33523 -3.00733,19.64336 -4.915592,32.31352 -1.704072,11.31437 -4.111207,27.10134 -4.147107,27.19904 -0.02139,0.0582 -0.09838,0.10573 -0.171181,0.10573 -0.07272,0 -0.149659,-0.0475 -0.170659,-0.10573 -0.03724,-0.10311 -1.995838,-14.28926 -4.485805,-32.49072 -1.088159,-7.95436 -3.563647,-25.91656 -3.745587,-27.17827 l -0.06701,-0.46544 H 65.609303 45.248074 l -0.02146,49.10688 c -0.01191,27.00783 -0.0033,49.15246 0.01884,49.21212 0.03207,0.0847 2.714137,0.10208 13.187293,0.085 l 13.146984,-0.0217 0.0424,-35.61889 c 0.04316,-36.31822 0.04073,-36.06346 0.327705,-35.75069 0.0406,0.0442 0.462297,2.32843 0.937052,5.07586 0.474756,2.74743 3.238998,18.75817 6.143181,35.57978 2.90418,16.8216 5.304189,30.62329 5.333339,30.67049 0.06864,0.11131 20.078002,0.12018 20.146602,0.009 0.0262,-0.0424 1.95097,-11.08162 4.27693,-24.53195 6.8969,-39.88275 8.13392,-46.97052 8.21202,-47.04863 0.0408,-0.0409 0.11587,-0.0487 0.16647,-0.0174 0.0661,0.0408 0.0918,10.04752 0.0927,35.42141 5.4e-4,19.45048 0.0245,35.56464 0.0539,35.80912 l 0.0534,0.44467 h 13.10981 13.11034 l 0.0455,-0.19071 c 0.0248,-0.10478 0.0358,-22.25051 0.023,-49.21261 l -0.023,-49.0219 -20.0241,-0.0217 c -5.5065,-0.006 -10.52581,-0.006 -14.17669,-0.002 z m 33.05749,99.79207 -0.001,0.61946 c -8.1e-4,0.3407 -0.0316,0.66624 -0.0681,0.72374 -0.0495,0.078 -0.67741,0.11018 -2.47507,0.12698 l -2.40859,0.0227 -0.0267,0.27521 -0.0267,0.27521 h 2.40178 c 1.75489,0 2.42862,0.0271 2.50282,0.10139 0.06,0.06 0.10156,0.34854 0.10156,0.70539 0,0.33218 0.0272,0.63136 0.0602,0.66436 0.0333,0.0331 0.13767,0.0488 0.23243,0.0352 0.16782,-0.024 0.17275,-0.0776 0.17275,-1.76036 v -1.73572 l -0.23295,-0.027 z m -56.458112,0.27038 c -0.782663,-0.009 -1.551174,0.0181 -2.00393,0.083 -3.390023,0.48624 -5.192943,2.26729 -5.91232,5.84065 -0.308063,1.53025 -0.39332,7.78865 -0.143438,10.54811 0.116839,1.29024 0.501151,2.75345 0.984167,3.74811 0.310074,0.63853 0.516326,0.9334 0.955372,1.36492 0.868031,0.85316 1.924576,1.34196 3.26921,1.51219 1.270126,0.1608 2.705095,0.0664 3.707895,-0.24334 0.67967,-0.20993 1.477241,-0.78175 1.888235,-1.35382 0.16736,-0.23295 0.336121,-0.40388 0.374822,-0.37998 0.03873,0.0239 0.09711,0.38589 0.129827,0.80438 l 0.05968,0.76091 h 2.233218 2.233217 l -0.02147,-6.03231 -0.02198,-6.03281 h -3.852377 -3.85238 l -0.02251,2.05053 -0.02251,2.05004 0.868998,0.0241 0.86952,0.0242 0.0267,0.93136 c 0.05146,1.78983 -0.256728,2.83551 -0.925011,3.13686 -0.490016,0.22102 -1.270605,0.21126 -1.582517,-0.0198 -0.326102,-0.24155 -0.59164,-0.66282 -0.760112,-1.20656 -0.131982,-0.42598 -0.145531,-1.01313 -0.145531,-6.14385 0,-5.12548 0.0141,-5.71731 0.145531,-6.13806 0.239982,-0.76813 0.769913,-1.18532 1.505565,-1.18532 0.474878,0 0.870246,0.1836 1.119226,0.52 0.314997,0.42559 0.338996,0.53013 0.395236,1.72366 l 0.05183,1.10034 2.982334,0.0227 2.98286,0.0217 0.05758,-0.23079 c 0.07901,-0.31479 -0.100706,-1.94056 -0.311478,-2.81723 -0.596949,-2.48298 -2.318764,-3.93216 -5.176291,-4.35647 -0.507932,-0.0754 -1.304511,-0.11893 -2.087161,-0.12746 z m -27.534121,0.41667 -0.07748,0.1912 c -0.04271,0.10519 -0.175894,0.85804 -0.295774,1.67296 -0.119882,0.81491 -0.464325,3.10063 -0.765345,5.07972 -0.30102,1.97908 -0.625259,4.15102 -0.720849,4.82624 -0.09559,0.67521 -0.193126,1.28155 -0.216726,1.34755 -0.09486,0.26532 -0.202148,-0.0827 -0.336605,-1.09358 -0.07742,-0.58209 -0.400422,-2.94415 -0.718231,-5.24919 -0.317811,-2.30505 -0.643357,-4.70552 -0.723467,-5.33417 -0.08011,-0.62865 -0.18017,-1.21012 -0.22196,-1.29202 -0.07131,-0.1397 -0.358644,-0.14748 -4.665886,-0.12698 l -4.589457,0.0217 -0.02199,11.00678 c -0.01197,6.05368 -0.0038,11.05433 0.01832,11.11253 0.03116,0.0818 0.709899,0.10574 2.997517,0.10574 2.618232,0 2.962486,-0.0152 3.007986,-0.13374 0.02826,-0.0737 0.05183,-3.52168 0.05183,-7.66232 0,-4.96248 0.02847,-7.52856 0.08428,-7.52856 0.04657,0 0.08534,0.0288 0.08585,0.0637 10e-4,0.0716 0.906768,5.3794 1.433845,8.40295 0.190764,1.09432 0.520536,2.99932 0.732889,4.23334 0.212353,1.23401 0.406284,2.3296 0.430834,2.43437 l 0.0445,0.19023 h 2.304413 2.304412 l 0.107316,-0.57166 c 0.10264,-0.54853 0.68652,-3.92275 1.95472,-11.29406 0.325644,-1.89278 0.59207,-3.48331 0.59207,-3.53471 0,-0.0514 0.03824,-0.0937 0.08481,-0.0937 0.05581,0 0.085,2.60475 0.08585,7.64155 6.97e-4,4.20264 0.03175,7.68898 0.0691,7.74777 0.05301,0.0837 0.707404,0.10236 2.983382,0.085 l 2.915328,-0.0222 v -11.09129 -11.09177 l -4.468006,-0.0217 z m 11.179175,0.001 v 11.13377 11.13329 h 3.174983 3.174979 v -11.13329 -11.13377 h -3.174979 z m 26.080383,0 -0.04764,0.19072 c -0.0267,0.10486 -0.03385,3.924 -0.01675,8.48744 0.03017,8.04007 0.03645,8.32219 0.207826,9.1016 0.43387,1.97329 1.053966,3.02034 2.249446,3.7988 0.897219,0.58426 2.155263,0.96017 3.741923,1.11772 h 5.4e-4 c 0.92204,0.0914 3.23946,0.0189 4.04135,-0.12649 2.96967,-0.53835 4.54007,-2.09009 5.24173,-5.18063 0.18845,-0.82995 0.19015,-0.90224 0.21934,-8.92247 0.0162,-4.44712 0.008,-8.17168 -0.0183,-8.27646 l -0.0476,-0.19023 h -3.17132 -3.17079 l -0.0256,8.69941 c -0.0278,9.42816 -0.0107,9.08944 -0.49104,9.54964 -0.40049,0.3837 -1.12927,0.44696 -1.7181,0.14871 -0.33701,-0.17072 -0.54833,-0.7081 -0.64704,-1.64544 -0.0486,-0.46122 -0.084,-4.13057 -0.0848,-8.77279 l -10e-4,-7.97953 h -3.131005 z m 17.903955,0.042 -0.022,11.00679 c -0.012,6.05367 -0.003,11.0545 0.0189,11.11301 0.0321,0.0847 1.47868,0.10169 7.00694,0.0845 l 6.96611,-0.0212 0.0225,-2.42277 c 0.0181,-1.95567 5.4e-4,-2.4411 -0.0921,-2.5179 -0.0802,-0.0666 -1.23427,-0.10192 -3.83249,-0.11732 l -3.71784,-0.0222 v -1.86271 -1.86271 l 3.38647,-0.0425 3.387,-0.042 0.0225,-2.39188 0.0225,-2.39188 h -3.3357 c -2.73203,0 -3.35261,-0.0211 -3.43201,-0.11684 -0.0669,-0.0809 -0.0898,-0.60773 -0.0738,-1.71448 l 0.023,-1.59765 3.64036,-0.0425 3.64089,-0.042 v -2.49767 -2.4981 h -6.81587 z m 15.91731,0 -0.0215,11.11301 -0.0215,11.11349 6.66772,-0.0217 6.66772,-0.0217 0.0225,-2.40298 c 0.0159,-1.70202 -0.006,-2.43657 -0.0738,-2.51886 -0.0787,-0.0948 -0.7154,-0.11587 -3.47232,-0.11588 h -3.376 l -0.0215,-8.57242 -0.0215,-8.57291 h -3.17498 z m 10.58344,3.47146 c -1.3228,0 -1.47397,0.0157 -1.86206,0.19457 -0.77799,0.35857 -0.80514,0.4112 -0.80514,1.54695 v 0.99267 l 0.29683,0.26072 c 0.2759,0.24225 0.83595,0.45632 1.43908,0.55042 0.1397,0.0217 0.69372,0.026 1.23177,0.009 1.14048,-0.0356 1.75734,-0.22109 2.17511,-0.65422 0.33403,-0.34628 0.44497,-0.63954 0.44497,-1.17277 0,-0.76037 -0.28781,-1.17748 -1.05902,-1.53294 -0.38809,-0.17893 -0.53874,-0.19458 -1.86154,-0.19458 z m 0.0419,0.59435 c 1.15806,10e-4 1.35904,0.0234 1.70763,0.18298 0.4993,0.22855 0.70839,0.53761 0.69729,1.03227 -0.007,0.31843 -0.0555,0.4206 -0.30624,0.65035 -0.19454,0.17828 -0.44935,0.30534 -0.73656,0.36694 -0.59609,0.12784 -2.40616,0.10938 -2.92527,-0.0299 -0.59484,-0.15964 -0.89203,-0.50976 -0.89203,-1.0511 0,-0.89917 0.54308,-1.15452 2.45518,-1.15151 z m 1.72543,3.95137 c -0.49636,-0.004 -1.15362,-0.004 -1.85212,0.003 l -2.53998,0.0237 v 0.29645 0.29597 l 1.16058,0.0237 1.16058,0.0237 0.0555,0.29452 c 0.0693,0.36942 -0.0244,1.03945 -0.17903,1.28043 -0.15219,0.23715 -0.51003,0.34098 -1.37679,0.39977 -0.38657,0.0262 -0.73894,0.0702 -0.78314,0.0975 -0.0442,0.0273 -0.0801,0.17772 -0.0801,0.33459 v 0.28535 l 0.48685,-0.0396 c 1.62509,-0.13163 1.56153,-0.11722 1.86678,-0.42247 0.15828,-0.15826 0.30724,-0.28775 0.33084,-0.28775 0.0236,0 0.12125,0.10002 0.21725,0.22209 0.36058,0.4584 1.34124,0.60977 1.92541,0.29742 0.52669,-0.28162 0.62964,-0.57567 0.66274,-1.89168 0.0291,-1.15794 0.029,-1.16058 -0.16909,-1.20898 -0.0546,-0.0134 -0.38991,-0.023 -0.88627,-0.0275 z m -1.51342,0.70395 h 1.0161 1.01558 l 0.0251,0.61076 c 0.03,0.7393 -0.11687,1.08288 -0.53606,1.25823 -0.51979,0.21695 -1.07293,0.0626 -1.37312,-0.38384 -0.16726,-0.24943 -0.19314,-0.38061 -0.17222,-0.88887 z m -0.25389,3.56464 c -1.46853,0 -1.82257,0.0751 -2.3887,0.50696 l -0.28373,0.2163 0.0241,1.06944 0.0236,1.06944 0.3387,0.2361 c 0.18626,0.1299 0.62444,0.30941 0.97369,0.39881 1.19393,0.30571 2.80405,0.13426 3.58331,-0.38143 0.82193,-0.54391 0.86427,-2.08417 0.0728,-2.64777 -0.55989,-0.3987 -0.9057,-0.46785 -2.34367,-0.46785 z m 0.0602,0.57745 c 0.25431,7.4e-4 0.50414,0.013 0.72922,0.0381 1.20983,0.13507 1.63582,0.4192 1.65372,1.10324 0.0194,0.74115 -0.45438,1.08096 -1.67204,1.19884 -0.4243,0.041 -0.82841,0.0702 -0.89831,0.0652 -1.38799,-0.10435 -1.63445,-0.17198 -2.05314,-0.56248 -0.19543,-0.1823 -0.23295,-0.28712 -0.23295,-0.65133 0,-0.47755 0.14194,-0.69827 0.60201,-0.93618 0.30414,-0.15705 1.10856,-0.25748 1.87149,-0.25541 z m -58.908055,12.57305 c -0.02069,0.005 0.0088,0.0961 0.103129,0.0932 -0.03633,-0.036 -0.07691,-0.079 -0.09056,-0.0888 -0.0053,-0.004 -0.0094,-0.005 -0.01257,-0.004 z"
         inkscape:connector-curvature="0" />
      <path
         id="path3734-3"
         style="fill:#fccc04;stroke-width:0.08466667"
         d="m 75.620043,107.98122 c -2.669258,-5.2e-4 -5.969991,0.002 -10.028015,0.006 l -20.343954,0.0217 -0.02094,49.1035 c -0.01816,42.00079 -0.0042,49.086 0.09685,48.97989 0.06494,-0.0682 5.25081,-13.89748 11.524157,-30.73133 10.320991,-27.69527 12.645027,-33.87017 13.53175,-35.95154 l 0.284257,-0.66678 0.394189,-0.0256 0.394191,-0.0261 0.0016,-0.94777 c 0.0021,-1.26683 0.191999,-2.59916 0.390525,-2.74433 0.08221,-0.0601 0.175009,-0.0805 0.206778,-0.0454 0.03177,0.0351 0.18012,0.71138 0.329278,1.50302 0.149158,0.79163 0.309353,1.62028 0.355973,1.84146 l 0.08481,0.40219 h 8.586318 8.586843 v -0.19023 c -1.99e-4,-0.47299 -0.576033,-4.92352 -1.94739,-15.04942 -0.507669,-3.74862 -1.173874,-8.72095 -1.480437,-11.04928 -0.30656,-2.32834 -0.573963,-4.28078 -0.594164,-4.33908 -0.02198,-0.0634 -2.3448,-0.0892 -10.352582,-0.0908 z m 33.810267,0.003 c -3.65088,0.004 -5.93291,0.0136 -5.96572,0.0261 -0.0925,0.0352 -0.077,0.0845 0.0701,0.22161 0.12533,0.11673 0.17409,0.23763 0.14449,0.35728 -0.0246,0.0995 -0.35012,2.27666 -0.72347,4.83783 -0.37336,2.56117 -0.92923,6.31406 -1.23492,8.33971 -1.38921,9.20519 -2.412773,16.3103 -2.412773,16.74555 V 138.7 h 7.329943 7.32993 l -0.27745,0.48716 c -0.61699,1.08286 -2.59518,4.08804 -10.51957,15.98077 -4.561174,6.8453 -8.379779,12.61731 -8.485289,12.82701 -0.105511,0.20971 -2.382956,8.535 -5.061124,18.50012 -5.614868,20.89208 -5.315985,19.76314 -5.254813,19.86214 0.06319,0.1022 20.077636,0.10182 20.140836,-5e-4 0.0262,-0.0424 1.9509,-11.0821 4.27693,-24.53243 8.56196,-49.50979 8.15302,-47.19711 8.33976,-47.16981 0.0932,0.0136 0.19115,0.11662 0.22405,0.23561 0.0322,0.11642 0.062,1.0214 0.067,2.01094 l 0.008,1.79897 h 8.87843 8.87843 l -0.0806,0.44468 c -0.2408,1.3292 -2.2635,8.97593 -9.59195,36.25862 -4.45298,16.57774 -8.11799,30.34152 -8.14449,30.586 l -0.0482,0.44419 h 13.13337 13.1339 l 0.0455,-0.19023 c 0.0248,-0.10478 0.0358,-22.25051 0.023,-49.21261 l -0.023,-49.0219 -20.0241,-0.0217 c -5.5065,-0.006 -10.52581,-0.007 -14.17669,-0.002 z m 33.05749,99.79256 -0.001,0.61946 c -8.1e-4,0.3407 -0.0316,0.66624 -0.0681,0.72374 -0.0495,0.078 -0.67741,0.11018 -2.47507,0.12698 l -2.40859,0.0227 -0.0267,0.27521 -0.0267,0.27521 h 2.40178 c 1.75489,0 2.42862,0.0271 2.50282,0.10139 0.06,0.06 0.10156,0.34854 0.10156,0.70539 0,0.33218 0.0272,0.63136 0.0602,0.66436 0.0333,0.0331 0.13767,0.0488 0.23243,0.0352 0.16782,-0.024 0.17275,-0.0776 0.17275,-1.76036 v -1.73573 l -0.23295,-0.027 z m -56.458112,0.27038 c -0.782663,-0.009 -1.551174,0.0181 -2.00393,0.083 -3.390023,0.48624 -5.192943,2.26729 -5.91232,5.84065 -0.308063,1.53025 -0.39332,7.78865 -0.143438,10.54811 0.116839,1.29024 0.501151,2.75345 0.984167,3.74811 0.310074,0.63853 0.516326,0.93339 0.955372,1.36492 0.868031,0.85316 1.924576,1.34196 3.26921,1.51219 1.270126,0.1608 2.705095,0.0664 3.707895,-0.24334 0.67967,-0.20993 1.477241,-0.78175 1.888235,-1.35382 0.16736,-0.23295 0.336121,-0.40388 0.374822,-0.37998 0.03873,0.0239 0.09711,0.38589 0.129827,0.80438 l 0.05968,0.76091 h 2.233218 2.233217 l -0.02147,-6.03232 -0.02198,-6.0328 h -3.852377 -3.85238 l -0.02251,2.05053 -0.02251,2.05004 0.868998,0.0241 0.86952,0.0242 0.0267,0.93135 c 0.05146,1.78983 -0.256728,2.83552 -0.925011,3.13687 -0.490016,0.22102 -1.270605,0.21126 -1.582517,-0.0198 -0.326102,-0.24155 -0.59164,-0.66282 -0.760112,-1.20656 -0.131982,-0.42598 -0.145531,-1.01313 -0.145531,-6.14385 0,-5.12548 0.0141,-5.71731 0.145531,-6.13806 0.239982,-0.76813 0.769913,-1.18532 1.505565,-1.18532 0.474878,0 0.870246,0.1836 1.119226,0.52 0.314997,0.42559 0.338996,0.53013 0.395236,1.72366 l 0.05183,1.10034 2.982334,0.0227 2.98286,0.0217 0.05758,-0.23079 c 0.07901,-0.31479 -0.100706,-1.94057 -0.311478,-2.81723 -0.596949,-2.48299 -2.318764,-3.93216 -5.176291,-4.35647 -0.507932,-0.0754 -1.304511,-0.11894 -2.087161,-0.12746 z m -27.534121,0.41667 -0.07748,0.1912 c -0.04271,0.10519 -0.175894,0.85804 -0.295774,1.67296 -0.119882,0.81491 -0.464325,3.10063 -0.765345,5.07972 -0.30102,1.97908 -0.625259,4.15102 -0.720849,4.82624 -0.09559,0.67521 -0.193126,1.28155 -0.216726,1.34755 -0.09486,0.26532 -0.202148,-0.0827 -0.336605,-1.09358 -0.07742,-0.58209 -0.400422,-2.94415 -0.718231,-5.2492 -0.317811,-2.30505 -0.643357,-4.70551 -0.723467,-5.33416 -0.08011,-0.62865 -0.18017,-1.21012 -0.22196,-1.29202 -0.07131,-0.1397 -0.358644,-0.14748 -4.665886,-0.12698 l -4.589457,0.0217 -0.02199,11.00678 c -0.01197,6.05367 -0.0038,11.05433 0.01832,11.11253 0.03116,0.0818 0.709899,0.10574 2.997517,0.10574 2.618232,0 2.962486,-0.0152 3.007986,-0.13374 0.02826,-0.0737 0.05183,-3.52168 0.05183,-7.66232 0,-4.96248 0.02847,-7.52857 0.08428,-7.52857 0.04657,0 0.08534,0.0288 0.08585,0.0637 10e-4,0.0716 0.906768,5.3794 1.433845,8.40295 0.190764,1.09432 0.520536,2.99932 0.732889,4.23334 0.212353,1.23401 0.406284,2.3296 0.430834,2.43437 l 0.0445,0.19023 h 2.304413 2.304412 l 0.107316,-0.57166 c 0.10264,-0.54853 0.68652,-3.92275 1.95472,-11.29406 0.325644,-1.89278 0.59207,-3.48331 0.59207,-3.53471 0,-0.0514 0.03824,-0.0937 0.08481,-0.0937 0.05581,0 0.085,2.60476 0.08585,7.64156 6.97e-4,4.20264 0.03175,7.68897 0.0691,7.74776 0.05301,0.0837 0.707404,0.10237 2.983382,0.085 l 2.915328,-0.0222 V 219.59897 208.5072 l -4.468006,-0.0217 z m 11.179175,0.001 v 11.13377 11.13329 h 3.174983 3.174979 V 219.5986 208.46483 h -3.174979 z m 26.080383,0 -0.04764,0.19072 c -0.0267,0.10486 -0.03385,3.92399 -0.01675,8.48744 0.03017,8.04007 0.03645,8.32219 0.207826,9.10159 0.43387,1.9733 1.053966,3.02035 2.249446,3.79881 0.897219,0.58426 2.155263,0.96017 3.741923,1.11772 h 5.4e-4 c 0.92204,0.0914 3.23946,0.0189 4.04135,-0.12649 2.96967,-0.53835 4.54007,-2.09009 5.24173,-5.18063 0.18845,-0.82996 0.19015,-0.90224 0.21934,-8.92247 0.0162,-4.44712 0.008,-8.17168 -0.0183,-8.27646 l -0.0476,-0.19023 h -3.17132 -3.17079 l -0.0256,8.69941 c -0.0278,9.42816 -0.0107,9.08944 -0.49104,9.54964 -0.40049,0.3837 -1.12927,0.44696 -1.7181,0.14871 -0.33701,-0.17072 -0.54833,-0.7081 -0.64704,-1.64544 -0.0486,-0.46122 -0.084,-4.13057 -0.0848,-8.77279 l -10e-4,-7.97953 h -3.131005 z m 17.903955,0.042 -0.022,11.00679 c -0.012,6.05367 -0.003,11.0545 0.0189,11.113 0.0321,0.0847 1.47868,0.1017 7.00694,0.0845 l 6.96611,-0.0212 0.0225,-2.42277 c 0.0181,-1.95567 5.4e-4,-2.4411 -0.0921,-2.5179 -0.0802,-0.0666 -1.23427,-0.10192 -3.83249,-0.11732 l -3.71784,-0.0222 v -1.86271 -1.86271 l 3.38647,-0.0425 3.387,-0.042 0.0225,-2.39188 0.0225,-2.39188 h -3.3357 c -2.73203,0 -3.35261,-0.0211 -3.43201,-0.11684 -0.0669,-0.0809 -0.0898,-0.60773 -0.0738,-1.71448 l 0.023,-1.59765 3.64036,-0.0425 3.64089,-0.042 v -2.49767 -2.4981 h -6.81587 z m 15.91731,0 -0.0215,11.11301 -0.0215,11.11349 6.66772,-0.0217 6.66772,-0.0217 0.0225,-2.40298 c 0.0159,-1.70202 -0.006,-2.43657 -0.0738,-2.51886 -0.0787,-0.0948 -0.7154,-0.11588 -3.47232,-0.11588 h -3.376 l -0.0215,-8.57242 -0.0215,-8.57291 h -3.17498 z m 10.58344,3.47146 c -1.3228,0 -1.47397,0.0157 -1.86206,0.19457 -0.77799,0.35857 -0.80514,0.4112 -0.80514,1.54695 v 0.99267 l 0.29683,0.26072 c 0.2759,0.24225 0.83595,0.45631 1.43908,0.55041 0.1397,0.0217 0.69372,0.026 1.23177,0.009 1.14048,-0.0357 1.75734,-0.22109 2.17511,-0.65422 0.33403,-0.34628 0.44497,-0.63955 0.44497,-1.17277 0,-0.76037 -0.28781,-1.17748 -1.05902,-1.53294 -0.38809,-0.17893 -0.53874,-0.19458 -1.86154,-0.19458 z m 0.0419,0.59435 c 1.15806,0.001 1.35904,0.0234 1.70763,0.18298 0.4993,0.22855 0.70839,0.53761 0.69729,1.03227 -0.007,0.31843 -0.0555,0.4206 -0.30624,0.65035 -0.19454,0.17828 -0.44935,0.30534 -0.73656,0.36694 -0.59609,0.12784 -2.40616,0.10938 -2.92527,-0.0299 -0.59484,-0.15964 -0.89203,-0.50976 -0.89203,-1.0511 0,-0.89917 0.54308,-1.15452 2.45518,-1.15151 z m 1.72543,3.95137 c -0.49636,-0.004 -1.15362,-0.004 -1.85212,0.003 l -2.53998,0.0237 v 0.29645 0.29597 l 1.16058,0.0237 1.16058,0.0237 0.0555,0.29452 c 0.0693,0.36942 -0.0244,1.03945 -0.17903,1.28043 -0.15219,0.23715 -0.51003,0.34097 -1.37679,0.39977 -0.38657,0.0262 -0.73894,0.0702 -0.78314,0.0975 -0.0442,0.0273 -0.0801,0.17772 -0.0801,0.33459 v 0.28535 l 0.48685,-0.0396 c 1.62509,-0.13163 1.56153,-0.11722 1.86678,-0.42247 0.15828,-0.15827 0.30724,-0.28775 0.33084,-0.28775 0.0236,0 0.12125,0.10002 0.21725,0.22209 0.36058,0.4584 1.34124,0.60977 1.92541,0.29742 0.52669,-0.28162 0.62964,-0.57567 0.66274,-1.89168 0.0291,-1.15794 0.029,-1.16058 -0.16909,-1.20898 -0.0546,-0.0134 -0.38991,-0.023 -0.88627,-0.0275 z m -1.51342,0.70395 h 1.0161 1.01558 l 0.0251,0.61076 c 0.03,0.7393 -0.11687,1.08288 -0.53606,1.25823 -0.51979,0.21695 -1.07293,0.0626 -1.37312,-0.38384 -0.16726,-0.24943 -0.19314,-0.38061 -0.17222,-0.88887 z m -0.25389,3.56464 c -1.46853,0 -1.82257,0.0751 -2.3887,0.50696 l -0.28373,0.2163 0.0241,1.06944 0.0236,1.06944 0.3387,0.2361 c 0.18626,0.1299 0.62444,0.30941 0.97369,0.39881 1.19393,0.30571 2.80405,0.13426 3.58331,-0.38143 0.82193,-0.54391 0.86427,-2.08417 0.0728,-2.64777 -0.55989,-0.3987 -0.9057,-0.46785 -2.34367,-0.46785 z m 0.0602,0.57745 c 0.25431,7.4e-4 0.50414,0.013 0.72922,0.0381 1.20983,0.13507 1.63582,0.4192 1.65372,1.10324 0.0194,0.74115 -0.45438,1.08096 -1.67204,1.19884 -0.4243,0.041 -0.82841,0.0702 -0.89831,0.0652 -1.38799,-0.10435 -1.63445,-0.17198 -2.05314,-0.56249 -0.19543,-0.18229 -0.23295,-0.28711 -0.23295,-0.65132 0,-0.47755 0.14194,-0.69827 0.60201,-0.93618 0.30414,-0.15705 1.10856,-0.25748 1.87149,-0.25541 z M 81.311995,233.9431 c -0.02069,0.005 0.0088,0.0961 0.103129,0.0932 -0.03633,-0.036 -0.07691,-0.079 -0.09056,-0.0888 -0.0053,-0.004 -0.0094,-0.005 -0.01257,-0.004 z"
         inkscape:connector-curvature="0" />
      <path
         id="path3732-8"
         style="fill:#fca520;stroke-width:0.08466667"
         d="m 109.43031,107.9846 c -3.65088,0.004 -5.93291,0.0136 -5.96572,0.0261 -0.0927,0.0353 -0.0774,0.0842 0.0686,0.22016 0.13714,0.12762 0.17447,0.23512 0.13978,0.39929 -0.0928,0.43952 -0.55506,3.64895 -0.54705,3.79832 0.007,0.13308 0.479,-2.45006 0.62557,-3.4251 0.0298,-0.19791 0.0897,-0.3597 0.13297,-0.3597 0.32239,0 35.43634,14.70002 35.50114,14.86208 0.0193,0.0483 -0.50909,2.12475 -1.17419,4.61429 -0.6651,2.48954 -1.99266,7.47946 -2.9504,11.08838 -0.95774,3.60892 -5.36764,20.04875 -9.79978,36.53335 -4.43214,16.4846 -8.07596,30.13412 -8.09737,30.33203 l -0.0387,0.3597 h 13.13023 13.13023 l 0.0456,-0.19023 c 0.0248,-0.10478 0.0358,-22.25051 0.023,-49.21261 l -0.023,-49.0219 -20.02411,-0.0217 c -5.5065,-0.006 -10.52581,-0.007 -14.17669,-0.002 z m -64.182236,0.0242 -0.02094,49.10252 c -0.01244,28.76002 0.0097,49.069 0.05392,49.0219 0.04152,-0.0443 4.846726,-12.88231 10.677671,-28.52871 11.759454,-31.5546 15.364811,-41.19472 15.529396,-41.52133 0.06078,-0.12062 0.132532,-0.38934 0.159142,-0.59725 0.0267,-0.20851 0.111473,-0.42427 0.189504,-0.48137 0.0778,-0.0569 0.128013,-0.14021 0.111505,-0.18492 -0.01651,-0.0447 -3.279287,-3.34774 -7.25089,-7.34027 -3.971601,-3.99253 -7.20821,-7.29817 -7.19226,-7.34607 0.03467,-0.10399 2.604927,-1.1928 14.921099,-6.32007 11.846653,-4.93182 13.331416,-5.54005 13.385697,-5.48578 0.02442,0.0244 0.172682,0.8576 0.329797,1.85209 0.384473,2.43363 0.445281,2.77597 0.449682,2.52803 0.0021,-0.11642 -0.136129,-1.2211 -0.307292,-2.45512 l -0.310952,-2.24366 h -20.36228 z m 57.828616,4.68381 c -0.0144,-0.015 -0.0252,0.0372 -0.0267,0.14194 -0.002,0.13967 0.0156,0.20746 0.0387,0.15016 0.0231,-0.0573 0.0246,-0.17204 0.003,-0.25444 -0.005,-0.0206 -0.0104,-0.0327 -0.0152,-0.0377 z m -16.425619,0.42536 c -0.01388,-0.008 -0.02356,0.0603 -0.02356,0.1825 0,0.16296 0.01745,0.22973 0.03874,0.14823 0.02131,-0.0815 0.02131,-0.21495 0,-0.29645 -0.0053,-0.0204 -0.01056,-0.0316 -0.01517,-0.0343 z m 16.337149,0.13664 c -0.0153,-0.006 -0.0262,0.043 -0.0262,0.13036 0,0.11643 0.0189,0.16393 0.0424,0.10573 0.0235,-0.0582 0.0235,-0.15327 0,-0.21147 -0.006,-0.0145 -0.0112,-0.0227 -0.0162,-0.0246 z m -16.252342,0.45384 c -0.01447,-0.015 -0.02541,0.0377 -0.0267,0.14243 -0.0016,0.13968 0.01608,0.20698 0.03926,0.14968 0.02316,-0.0573 0.02385,-0.17156 0.0027,-0.25396 -0.0054,-0.0206 -0.01035,-0.0331 -0.01517,-0.0382 z m 16.171192,0.0845 c -0.0144,-0.015 -0.0252,0.0376 -0.0267,0.14243 h 5.3e-4 c -0.002,0.13968 0.0156,0.20697 0.0387,0.14967 0.0231,-0.0573 0.0246,-0.17156 0.003,-0.25396 -0.005,-0.0206 -0.0109,-0.0331 -0.0157,-0.0381 z m -16.090049,0.56248 c -0.0153,-0.006 -0.02619,0.043 -0.02619,0.13036 0,0.11643 0.01892,0.16394 0.0424,0.10574 0.02348,-0.0582 0.02348,-0.15328 0,-0.21148 -0.0059,-0.0145 -0.01112,-0.0227 -0.01622,-0.0246 z m 16.001589,0 c -0.0153,-0.006 -0.0262,0.043 -0.0262,0.13036 0,0.11643 0.0194,0.16394 0.0429,0.10574 0.0235,-0.0582 0.0235,-0.15328 0,-0.21148 -0.006,-0.0145 -0.0117,-0.0227 -0.0168,-0.0246 z m -0.10051,0.58566 c -0.009,0.009 -0.0148,0.0386 -0.0168,0.0879 h -5.3e-4 c -0.004,0.0892 0.0164,0.13915 0.0445,0.11105 0.0285,-0.0281 0.0319,-0.10113 0.007,-0.16223 -0.0135,-0.0337 -0.0256,-0.0456 -0.0345,-0.0367 z m -15.832504,0.085 c -0.0089,0.009 -0.01469,0.0386 -0.01675,0.0879 -0.0037,0.0892 0.01638,0.13914 0.0445,0.11104 0.02815,-0.0281 0.03079,-0.10112 0.0063,-0.16222 -0.01351,-0.0338 -0.02511,-0.0456 -0.03403,-0.0367 z m 15.748214,0.50793 c -0.009,0.009 -0.0153,0.0386 -0.0173,0.0879 -0.004,0.0892 0.0164,0.13915 0.0445,0.11105 0.0285,-0.0281 0.0313,-0.10113 0.007,-0.16223 -0.0136,-0.0337 -0.0251,-0.0456 -0.034,-0.0367 z m -15.663408,0.0845 c -0.0089,0.009 -0.01522,0.0386 -0.01726,0.0879 -0.0037,0.0892 0.01635,0.13915 0.0445,0.11105 0.02816,-0.0281 0.03125,-0.10113 0.0068,-0.16223 -0.01351,-0.0338 -0.02511,-0.0456 -0.03403,-0.0367 z m 29.925958,19.2113 c -0.0111,-0.0565 -4.8967,7.2194 -10.85723,16.16811 -5.96054,8.94872 -10.957913,16.42968 -11.105364,16.62485 -0.151459,0.20049 -0.328007,0.58892 -0.405705,0.89273 -0.518761,2.02893 -9.980868,37.18082 -10.078797,37.44297 -0.06764,0.18104 -0.102832,0.36199 -0.078,0.40219 0.06131,0.0992 20.077446,0.0953 20.138746,-0.004 0.0262,-0.0424 1.95425,-11.10083 4.28426,-24.57444 2.33001,-13.47361 5.11065,-29.52712 6.1793,-35.67393 1.06865,-6.1468 1.93389,-11.22221 1.92279,-11.27861 z m 25.59144,72.94743 -0.001,0.61946 c -8.1e-4,0.3407 -0.0316,0.66624 -0.0681,0.72374 -0.0495,0.078 -0.67741,0.11018 -2.47507,0.12698 l -2.40859,0.0227 -0.0267,0.27521 -0.0267,0.27521 h 2.40178 c 1.75489,0 2.42862,0.0271 2.50282,0.10139 0.06,0.06 0.10156,0.34854 0.10156,0.70539 0,0.33218 0.0272,0.63136 0.0602,0.66436 0.0333,0.0331 0.13767,0.0488 0.23243,0.0352 0.16782,-0.024 0.17275,-0.0776 0.17275,-1.76036 v -1.73572 l -0.23295,-0.027 z m -56.458112,0.27038 c -0.782663,-0.009 -1.551174,0.0181 -2.00393,0.083 -3.390023,0.48624 -5.192943,2.26729 -5.91232,5.84065 -0.308063,1.53025 -0.39332,7.78865 -0.143438,10.54811 0.116839,1.29024 0.501151,2.75345 0.984167,3.74811 0.310074,0.63853 0.516326,0.9334 0.955372,1.36492 0.868031,0.85316 1.924576,1.34196 3.26921,1.51219 1.270126,0.1608 2.705095,0.0664 3.707895,-0.24334 0.67967,-0.20993 1.477241,-0.78175 1.888235,-1.35382 0.16736,-0.23295 0.336121,-0.40388 0.374822,-0.37998 0.03873,0.0239 0.09711,0.38589 0.129827,0.80438 l 0.05968,0.76091 h 2.233218 2.233217 l -0.02147,-6.03231 -0.02198,-6.03281 h -3.852377 -3.85238 l -0.02251,2.05053 -0.02251,2.05004 0.868998,0.0241 0.86952,0.0242 0.0267,0.93136 c 0.05146,1.78983 -0.256728,2.83551 -0.925011,3.13686 -0.490016,0.22102 -1.270605,0.21126 -1.582517,-0.0198 -0.326102,-0.24155 -0.59164,-0.66282 -0.760112,-1.20656 -0.131982,-0.42598 -0.145531,-1.01313 -0.145531,-6.14385 0,-5.12548 0.0141,-5.71731 0.145531,-6.13806 0.239982,-0.76813 0.769913,-1.18532 1.505565,-1.18532 0.474878,0 0.870246,0.1836 1.119226,0.52 0.314997,0.42559 0.338996,0.53013 0.395236,1.72366 l 0.05183,1.10034 2.982334,0.0227 2.98286,0.0217 0.05758,-0.23079 c 0.07901,-0.31479 -0.100706,-1.94056 -0.311478,-2.81723 -0.596949,-2.48298 -2.318764,-3.93216 -5.176291,-4.35647 -0.507932,-0.0754 -1.304511,-0.11893 -2.087161,-0.12746 z m -27.534121,0.41667 -0.07748,0.1912 c -0.04271,0.10519 -0.175894,0.85804 -0.295774,1.67296 -0.119882,0.81491 -0.464325,3.10063 -0.765345,5.07972 -0.30102,1.97908 -0.625259,4.15102 -0.720849,4.82624 -0.09559,0.67521 -0.193126,1.28155 -0.216726,1.34755 -0.09486,0.26532 -0.202148,-0.0827 -0.336605,-1.09358 -0.07742,-0.58209 -0.400422,-2.94415 -0.718231,-5.24919 -0.317811,-2.30505 -0.643357,-4.70552 -0.723467,-5.33417 -0.08011,-0.62865 -0.18017,-1.21012 -0.22196,-1.29202 -0.07131,-0.1397 -0.358644,-0.14748 -4.665886,-0.12698 l -4.589457,0.0217 -0.02199,11.00678 c -0.01197,6.05368 -0.0038,11.05433 0.01832,11.11253 0.03116,0.0818 0.709899,0.10574 2.997517,0.10574 2.618232,0 2.962486,-0.0152 3.007986,-0.13374 0.02826,-0.0737 0.05183,-3.52168 0.05183,-7.66232 0,-4.96248 0.02847,-7.52856 0.08428,-7.52856 0.04657,0 0.08534,0.0288 0.08585,0.0637 10e-4,0.0716 0.906768,5.3794 1.433845,8.40295 0.190764,1.09432 0.520536,2.99932 0.732889,4.23334 0.212353,1.23401 0.406284,2.3296 0.430834,2.43437 l 0.0445,0.19023 h 2.304413 2.304412 l 0.107316,-0.57166 c 0.10264,-0.54853 0.68652,-3.92275 1.95472,-11.29406 0.325644,-1.89278 0.59207,-3.48331 0.59207,-3.53471 0,-0.0514 0.03824,-0.0937 0.08481,-0.0937 0.05581,0 0.085,2.60475 0.08585,7.64155 6.97e-4,4.20264 0.03175,7.68898 0.0691,7.74777 0.05301,0.0837 0.707404,0.10236 2.983382,0.085 l 2.915328,-0.0222 v -11.09129 -11.09177 l -4.468006,-0.0217 z m 11.179175,0.001 v 11.13377 11.13329 h 3.174983 3.174979 V 219.59907 208.4653 h -3.174979 z m 26.080383,0 -0.04764,0.19072 c -0.0267,0.10486 -0.03385,3.924 -0.01675,8.48744 0.03017,8.04007 0.03645,8.32219 0.207826,9.1016 0.43387,1.97329 1.053966,3.02034 2.249446,3.7988 0.897219,0.58426 2.155263,0.96017 3.741923,1.11772 h 5.4e-4 c 0.92204,0.0914 3.23946,0.0189 4.04135,-0.12649 2.96967,-0.53835 4.54007,-2.09009 5.24173,-5.18063 0.18845,-0.82995 0.19015,-0.90224 0.21934,-8.92247 0.0162,-4.44712 0.008,-8.17168 -0.0183,-8.27646 l -0.0476,-0.19023 h -3.17132 -3.17079 l -0.0256,8.69941 c -0.0278,9.42816 -0.0107,9.08944 -0.49104,9.54964 -0.40049,0.3837 -1.12927,0.44696 -1.7181,0.14871 -0.33701,-0.17072 -0.54833,-0.7081 -0.64704,-1.64544 -0.0486,-0.46122 -0.084,-4.13057 -0.0848,-8.77279 l -10e-4,-7.97953 h -3.131005 z m 17.903955,0.042 -0.022,11.00679 c -0.012,6.05367 -0.003,11.0545 0.0189,11.11301 0.0321,0.0847 1.47868,0.10169 7.00694,0.0845 l 6.96611,-0.0212 0.0225,-2.42277 c 0.0181,-1.95567 5.4e-4,-2.4411 -0.0921,-2.5179 -0.0802,-0.0666 -1.23427,-0.10192 -3.83249,-0.11732 l -3.71784,-0.0222 v -1.86271 -1.86271 l 3.38647,-0.0425 3.387,-0.042 0.0225,-2.39188 0.0225,-2.39188 h -3.3357 c -2.73203,0 -3.35261,-0.0211 -3.43201,-0.11684 -0.0669,-0.0809 -0.0898,-0.60773 -0.0738,-1.71448 l 0.023,-1.59765 3.64036,-0.0425 3.64089,-0.042 v -2.49767 -2.4981 h -6.81587 z m 15.91731,0 -0.0215,11.11301 -0.0215,11.11349 6.66772,-0.0217 6.66772,-0.0217 0.0225,-2.40298 c 0.0159,-1.70202 -0.006,-2.43657 -0.0738,-2.51886 -0.0787,-0.0948 -0.7154,-0.11587 -3.47232,-0.11588 h -3.376 l -0.0215,-8.57242 -0.0215,-8.57291 h -3.17498 z m 10.58344,3.47146 c -1.3228,0 -1.47397,0.0157 -1.86206,0.19457 -0.77799,0.35857 -0.80514,0.4112 -0.80514,1.54695 v 0.99267 l 0.29683,0.26072 c 0.2759,0.24225 0.83595,0.45632 1.43908,0.55042 0.1397,0.0217 0.69372,0.026 1.23177,0.009 1.14048,-0.0356 1.75734,-0.22109 2.17511,-0.65422 0.33403,-0.34628 0.44497,-0.63954 0.44497,-1.17277 0,-0.76037 -0.28781,-1.17748 -1.05902,-1.53294 -0.38809,-0.17893 -0.53874,-0.19458 -1.86154,-0.19458 z m 0.0419,0.59435 c 1.15806,10e-4 1.35904,0.0234 1.70763,0.18298 0.4993,0.22855 0.70839,0.53761 0.69729,1.03227 -0.007,0.31843 -0.0555,0.4206 -0.30624,0.65035 -0.19454,0.17828 -0.44935,0.30534 -0.73656,0.36694 -0.59609,0.12784 -2.40616,0.10938 -2.92527,-0.0299 -0.59484,-0.15964 -0.89203,-0.50976 -0.89203,-1.0511 0,-0.89917 0.54308,-1.15452 2.45518,-1.15151 z m 1.72543,3.95137 c -0.49636,-0.004 -1.15362,-0.004 -1.85212,0.003 l -2.53998,0.0237 v 0.29645 0.29597 l 1.16058,0.0237 1.16058,0.0237 0.0555,0.29452 c 0.0693,0.36942 -0.0244,1.03945 -0.17903,1.28043 -0.15219,0.23715 -0.51003,0.34098 -1.37679,0.39977 -0.38657,0.0262 -0.73894,0.0702 -0.78314,0.0975 -0.0442,0.0273 -0.0801,0.17772 -0.0801,0.33459 v 0.28535 l 0.48685,-0.0396 c 1.62509,-0.13163 1.56153,-0.11722 1.86678,-0.42247 0.15828,-0.15826 0.30724,-0.28775 0.33084,-0.28775 0.0236,0 0.12125,0.10002 0.21725,0.22209 0.36058,0.4584 1.34124,0.60977 1.92541,0.29742 0.52669,-0.28162 0.62964,-0.57567 0.66274,-1.89168 0.0291,-1.15794 0.029,-1.16058 -0.16909,-1.20898 -0.0546,-0.0134 -0.38991,-0.023 -0.88627,-0.0275 z m -1.51342,0.70395 h 1.0161 1.01558 l 0.0251,0.61076 c 0.03,0.7393 -0.11687,1.08288 -0.53606,1.25823 -0.51979,0.21695 -1.07293,0.0626 -1.37312,-0.38384 -0.16726,-0.24943 -0.19314,-0.38061 -0.17222,-0.88887 z m -0.25389,3.56464 c -1.46853,0 -1.82257,0.0751 -2.3887,0.50696 l -0.28373,0.2163 0.0241,1.06944 0.0236,1.06944 0.3387,0.2361 c 0.18626,0.1299 0.62444,0.30941 0.97369,0.39881 1.19393,0.30571 2.80405,0.13426 3.58331,-0.38143 0.82193,-0.54391 0.86427,-2.08417 0.0728,-2.64777 -0.55989,-0.3987 -0.9057,-0.46785 -2.34367,-0.46785 z m 0.0602,0.57745 c 0.25431,7.4e-4 0.50414,0.013 0.72922,0.0381 1.20983,0.13507 1.63582,0.4192 1.65372,1.10324 0.0194,0.74115 -0.45438,1.08096 -1.67204,1.19884 -0.4243,0.041 -0.82841,0.0702 -0.89831,0.0652 -1.38799,-0.10435 -1.63445,-0.17198 -2.05314,-0.56248 -0.19543,-0.1823 -0.23295,-0.28712 -0.23295,-0.65133 0,-0.47755 0.14194,-0.69827 0.60201,-0.93618 0.30414,-0.15705 1.10856,-0.25748 1.87149,-0.25541 z m -58.908055,12.57305 c -0.02069,0.005 0.0088,0.0961 0.103129,0.0932 -0.03633,-0.036 -0.07691,-0.079 -0.09056,-0.0888 -0.0053,-0.004 -0.0094,-0.005 -0.01257,-0.004 z"
         inkscape:connector-curvature="0" />
      <path
         id="path3730-6"
         style="fill:#dc8f29;stroke-width:0.08466667"
         d="m 74.7678,107.98267 c -2.573112,-7.6e-4 -5.640993,5.5e-4 -9.24592,0.004 l -20.273806,0.0217 -0.02146,8.57243 c -0.01596,6.34315 0.0033,8.57242 0.07434,8.57242 0.138005,0 11.734114,-4.8958 12.13926,-5.12511 0.312056,-0.17662 3.05494,-1.33489 21.622322,-9.13056 3.603347,-1.51289 6.59217,-2.79148 6.642069,-2.84138 0.04841,-0.0484 -3.217468,-0.0716 -10.936798,-0.0739 z m 41.00619,0.002 c -7.20498,0.003 -12.30893,0.0238 -12.33871,0.0536 -0.0399,0.0399 0.0154,0.12862 0.12302,0.19796 0.10717,0.0691 2.76645,1.20386 5.9097,2.52175 3.14325,1.31789 10.55353,4.43385 16.4675,6.92457 5.91396,2.49073 11.34313,4.77473 12.06492,5.07538 0.72178,0.30064 1.36593,0.59817 1.43123,0.66146 0.10156,0.0984 0.0305,0.44335 -0.49156,2.38511 -0.33567,1.24855 -1.65854,6.1945 -2.93993,10.99086 -1.28141,4.79637 -5.84865,21.82719 -10.14894,37.84612 -4.30029,16.01894 -7.88056,29.37273 -7.95656,29.67541 -0.076,0.30269 -0.15974,0.62678 -0.18584,0.71988 -0.0323,0.1154 -0.0193,0.14219 0.0403,0.0845 0.0481,-0.0466 5.90095,-14.3273 13.00616,-31.7351 l 12.91822,-31.65061 -0.0209,-16.86337 -0.0215,-16.86336 -20.0618,-0.0217 c -2.75847,-0.003 -5.39366,-0.004 -7.79532,-0.002 z m 1.06007,26.98273 c -0.0115,0 -0.0228,0.005 -0.0314,0.0145 -0.11197,0.12616 -21.999649,32.96097 -22.037449,33.05947 -0.0264,0.0677 -0.02268,0.12312 0.0073,0.12312 0.03002,0 4.149489,-2.44378 9.154309,-5.43025 6.71541,-4.00721 9.11077,-5.47663 9.14227,-5.60889 0.11717,-0.49099 3.82469,-22.11315 3.79689,-22.14345 -0.009,-0.01 -0.0204,-0.0145 -0.0319,-0.0145 z m -45.144396,0.13133 c -0.01761,-0.0176 -5.983788,7.95069 -13.257963,17.70684 l -13.22603,17.73823 0.0026,17.75465 c 0.0015,10.62417 0.03376,17.70151 0.07957,17.62331 0.04211,-0.0719 4.996724,-13.33066 11.010612,-29.46393 6.013886,-16.13329 11.944544,-32.03191 13.178917,-35.33016 1.234371,-3.29826 2.229886,-6.01134 2.212277,-6.02894 z m 70.798136,72.6785 -0.001,0.61945 c -8.1e-4,0.34071 -0.0316,0.66625 -0.0681,0.72375 -0.0495,0.078 -0.67741,0.11018 -2.47507,0.12698 l -2.40859,0.0227 -0.0267,0.27521 -0.0267,0.2752 h 2.40178 c 1.75489,0 2.42862,0.0271 2.50282,0.1014 0.06,0.06 0.10156,0.34854 0.10156,0.70539 0,0.33218 0.0272,0.63136 0.0602,0.66436 0.0333,0.0331 0.13767,0.0488 0.23243,0.0352 0.16782,-0.024 0.17275,-0.0775 0.17275,-1.76035 v -1.73573 l -0.23295,-0.027 z m -56.458112,0.27038 c -0.782663,-0.009 -1.551174,0.0181 -2.00393,0.083 -3.390023,0.48624 -5.192943,2.26728 -5.91232,5.84064 -0.308063,1.53025 -0.39332,7.78866 -0.143438,10.54812 0.116839,1.29023 0.501151,2.75345 0.984167,3.74811 0.310074,0.63853 0.516326,0.93339 0.955372,1.36492 0.868031,0.85316 1.924576,1.34195 3.26921,1.51219 1.270126,0.1608 2.705095,0.0664 3.707895,-0.24335 0.67967,-0.20992 1.477241,-0.78174 1.888235,-1.35381 0.16736,-0.23295 0.336121,-0.40388 0.374822,-0.37998 0.03873,0.0239 0.09711,0.38589 0.129827,0.80437 l 0.05968,0.76092 h 2.233218 2.233217 l -0.02147,-6.03232 -0.02198,-6.0328 h -3.852377 -3.85238 l -0.02251,2.05052 -0.02251,2.05005 0.868998,0.0241 0.86952,0.0242 0.0267,0.93135 c 0.05146,1.78983 -0.256728,2.83552 -0.925011,3.13687 -0.490016,0.22102 -1.270605,0.21125 -1.582517,-0.0198 -0.326102,-0.24155 -0.59164,-0.66282 -0.760112,-1.20656 -0.131982,-0.42598 -0.145531,-1.01314 -0.145531,-6.14386 0,-5.12548 0.0141,-5.7173 0.145531,-6.13805 0.239982,-0.76813 0.769913,-1.18532 1.505565,-1.18532 0.474878,0 0.870246,0.18359 1.119226,0.52 0.314997,0.42558 0.338996,0.53012 0.395236,1.72365 l 0.05183,1.10034 2.982334,0.0227 2.98286,0.0217 0.05758,-0.23079 c 0.07901,-0.31479 -0.100706,-1.94057 -0.311478,-2.81724 -0.596949,-2.48298 -2.318764,-3.93215 -5.176291,-4.35646 -0.507932,-0.0754 -1.304511,-0.11894 -2.087161,-0.12746 z m -27.534121,0.41667 -0.07748,0.19119 c -0.04271,0.10519 -0.175894,0.85805 -0.295774,1.67297 -0.119882,0.81491 -0.464325,3.10063 -0.765345,5.07972 -0.30102,1.97908 -0.625259,4.15102 -0.720849,4.82624 -0.09559,0.67521 -0.193126,1.28154 -0.216726,1.34755 -0.09486,0.26532 -0.202148,-0.0827 -0.336605,-1.09359 -0.07742,-0.58209 -0.400422,-2.94414 -0.718231,-5.24919 -0.317811,-2.30505 -0.643357,-4.70552 -0.723467,-5.33416 -0.08011,-0.62865 -0.18017,-1.21012 -0.22196,-1.29202 -0.07131,-0.1397 -0.358644,-0.14749 -4.665886,-0.12699 l -4.589457,0.0217 -0.02199,11.00679 c -0.01197,6.05367 -0.0038,11.05433 0.01832,11.11253 0.03116,0.0818 0.709899,0.10573 2.997517,0.10573 2.618232,0 2.962486,-0.0152 3.007986,-0.13374 0.02826,-0.0737 0.05183,-3.52168 0.05183,-7.66231 0,-4.96249 0.02847,-7.52857 0.08428,-7.52857 0.04657,0 0.08534,0.0288 0.08585,0.0637 10e-4,0.0716 0.906768,5.37941 1.433845,8.40296 0.190764,1.09432 0.520536,2.99932 0.732889,4.23334 0.212353,1.23401 0.406284,2.32959 0.430834,2.43436 l 0.0445,0.19023 h 2.304413 2.304412 l 0.107316,-0.57165 c 0.10264,-0.54853 0.68652,-3.92275 1.95472,-11.29407 0.325644,-1.89278 0.59207,-3.4833 0.59207,-3.5347 0,-0.0514 0.03824,-0.0937 0.08481,-0.0937 0.05581,0 0.085,2.60475 0.08585,7.64155 6.97e-4,4.20264 0.03175,7.68898 0.0691,7.74777 0.05301,0.0837 0.707404,0.10237 2.983382,0.085 l 2.915328,-0.0222 v -11.09129 -11.09177 l -4.468006,-0.0217 z m 11.179175,0.001 v 11.13377 11.13329 h 3.174983 3.174979 v -11.13329 -11.13377 h -3.174979 z m 26.080383,0 -0.04764,0.19072 c -0.0267,0.10485 -0.03385,3.92399 -0.01675,8.48744 0.03017,8.04006 0.03645,8.32218 0.207826,9.10159 0.43387,1.9733 1.053966,3.02035 2.249446,3.79881 0.897219,0.58425 2.155263,0.96017 3.741923,1.11772 h 5.4e-4 c 0.92204,0.0914 3.23946,0.0189 4.04135,-0.1265 2.96967,-0.53835 4.54007,-2.09009 5.24173,-5.18063 0.18845,-0.82995 0.19015,-0.90223 0.21934,-8.92246 0.0162,-4.44712 0.008,-8.17169 -0.0183,-8.27646 l -0.0476,-0.19023 h -3.17132 -3.17079 l -0.0256,8.69941 c -0.0278,9.42816 -0.0107,9.08944 -0.49104,9.54964 -0.40049,0.3837 -1.12927,0.44696 -1.7181,0.14871 -0.33701,-0.17072 -0.54833,-0.7081 -0.64704,-1.64544 -0.0486,-0.46122 -0.084,-4.13057 -0.0848,-8.77279 l -10e-4,-7.97953 h -3.131005 z m 17.903955,0.042 -0.022,11.00678 c -0.012,6.05367 -0.003,11.05451 0.0189,11.11301 0.0321,0.0847 1.47868,0.1017 7.00694,0.0845 l 6.96611,-0.0212 0.0225,-2.42278 c 0.0181,-1.95567 5.4e-4,-2.44109 -0.0921,-2.51789 -0.0802,-0.0666 -1.23427,-0.10192 -3.83249,-0.11732 l -3.71784,-0.0222 v -1.86271 -1.86271 l 3.38647,-0.0425 3.387,-0.042 0.0225,-2.39187 0.0225,-2.39188 h -3.3357 c -2.73203,0 -3.35261,-0.0211 -3.43201,-0.11684 -0.0669,-0.0809 -0.0898,-0.60774 -0.0738,-1.71448 l 0.023,-1.59765 3.64036,-0.0425 3.64089,-0.042 v -2.49767 -2.4981 h -6.81587 z m 15.91731,0 -0.0215,11.113 -0.0215,11.11349 6.66772,-0.0217 6.66772,-0.0217 0.0225,-2.40298 c 0.0159,-1.70203 -0.006,-2.43657 -0.0738,-2.51886 -0.0787,-0.0948 -0.7154,-0.11587 -3.47232,-0.11588 h -3.376 l -0.0215,-8.57242 -0.0215,-8.57291 h -3.17498 z m 10.58344,3.47145 c -1.3228,0 -1.47397,0.0157 -1.86206,0.19458 -0.77799,0.35857 -0.80514,0.4112 -0.80514,1.54695 v 0.99267 l 0.29683,0.26072 c 0.2759,0.24225 0.83595,0.45631 1.43908,0.55041 0.1397,0.0217 0.69372,0.026 1.23177,0.009 1.14048,-0.0356 1.75734,-0.22108 2.17511,-0.65422 0.33403,-0.34627 0.44497,-0.63954 0.44497,-1.17276 0,-0.76037 -0.28781,-1.17748 -1.05902,-1.53294 -0.38809,-0.17893 -0.53874,-0.19458 -1.86154,-0.19458 z m 0.0419,0.59435 c 1.15806,0.001 1.35904,0.0234 1.70763,0.18299 0.4993,0.22855 0.70839,0.5376 0.69729,1.03226 -0.007,0.31843 -0.0555,0.42061 -0.30624,0.65036 -0.19454,0.17828 -0.44935,0.30534 -0.73656,0.36694 -0.59609,0.12784 -2.40616,0.10937 -2.92527,-0.0299 -0.59484,-0.15963 -0.89203,-0.50976 -0.89203,-1.05109 0,-0.89917 0.54308,-1.15452 2.45518,-1.15152 z m 1.72543,3.95138 c -0.49636,-0.004 -1.15362,-0.004 -1.85212,0.003 l -2.53998,0.0237 v 0.29645 0.29596 l 1.16058,0.0237 1.16058,0.0237 0.0555,0.29452 c 0.0693,0.36942 -0.0244,1.03945 -0.17903,1.28043 -0.15219,0.23715 -0.51003,0.34097 -1.37679,0.39977 -0.38657,0.0262 -0.73894,0.0702 -0.78314,0.0975 -0.0442,0.0273 -0.0801,0.17772 -0.0801,0.33459 v 0.28535 l 0.48685,-0.0396 c 1.62509,-0.13163 1.56153,-0.11722 1.86678,-0.42247 0.15828,-0.15827 0.30724,-0.28776 0.33084,-0.28776 0.0236,0 0.12125,0.10003 0.21725,0.2221 0.36058,0.4584 1.34124,0.60976 1.92541,0.29741 0.52669,-0.28162 0.62964,-0.57566 0.66274,-1.89167 0.0291,-1.15795 0.029,-1.16058 -0.16909,-1.20898 -0.0546,-0.0134 -0.38991,-0.023 -0.88627,-0.0275 z m -1.51342,0.70395 h 1.0161 1.01558 l 0.0251,0.61076 c 0.03,0.7393 -0.11687,1.08288 -0.53606,1.25822 -0.51979,0.21696 -1.07293,0.0626 -1.37312,-0.38384 -0.16726,-0.24943 -0.19314,-0.3806 -0.17222,-0.88886 z m -0.25389,3.56464 c -1.46853,0 -1.82257,0.0751 -2.3887,0.50696 l -0.28373,0.2163 0.0241,1.06944 0.0236,1.06944 0.3387,0.2361 c 0.18626,0.1299 0.62444,0.3094 0.97369,0.39881 1.19393,0.3057 2.80405,0.13426 3.58331,-0.38143 0.82193,-0.54391 0.86427,-2.08417 0.0728,-2.64777 -0.55989,-0.3987 -0.9057,-0.46785 -2.34367,-0.46785 z m 0.0602,0.57745 c 0.25431,7.4e-4 0.50414,0.013 0.72922,0.0381 1.20983,0.13507 1.63582,0.4192 1.65372,1.10324 0.0194,0.74115 -0.45438,1.08095 -1.67204,1.19883 -0.4243,0.041 -0.82841,0.0702 -0.89831,0.0652 -1.38799,-0.10435 -1.63445,-0.17197 -2.05314,-0.56248 -0.19543,-0.1823 -0.23295,-0.28711 -0.23295,-0.65132 0,-0.47755 0.14194,-0.69827 0.60201,-0.93618 0.30414,-0.15705 1.10856,-0.25748 1.87149,-0.25541 z m -58.908055,12.57305 c -0.02069,0.005 0.0088,0.0961 0.103129,0.0932 -0.03633,-0.036 -0.07691,-0.079 -0.09056,-0.0888 -0.0053,-0.004 -0.0094,-0.005 -0.01257,-0.004 z"
         inkscape:connector-curvature="0" />
      <path
         id="path3728-2"
         style="fill:#da6401;stroke-width:0.08466667"
         d="m 65.352268,108.07248 -20.019389,0.0212 -0.02146,8.48793 c -0.01327,5.2212 0.0089,8.48793 0.05758,8.48793 0.04352,0 2.701309,-1.11003 5.906039,-2.46671 3.204733,-1.35669 7.560065,-3.20039 9.678848,-4.09719 2.118785,-0.8968 6.595645,-2.78255 9.948445,-4.19037 3.3528,-1.40781 7.429201,-3.11993 9.059033,-3.80461 1.629833,-0.68467 3.544204,-1.48779 4.253897,-1.78497 0.709703,-0.29718 1.260313,-0.57049 1.223403,-0.60739 -0.0369,-0.0369 -9.075804,-0.0576 -20.086397,-0.0459 z m 58.344252,0 c -10.91745,-0.0117 -19.87929,0.008 -19.91469,0.043 -0.0354,0.0354 -0.0354,0.11055 -5.3e-4,0.16705 0.0349,0.0565 3.56704,1.57424 7.84924,3.37248 18.92343,7.94657 27.54006,11.58427 27.89428,11.7764 0.20955,0.11366 1.18098,0.54416 2.15888,0.95646 0.9779,0.4123 1.80645,0.72275 1.84165,0.68995 0.0353,-0.0328 0.0543,-3.86762 0.0424,-8.52173 l -0.0215,-8.46234 z m -7.02526,27.15654 c -0.0301,0.01 -0.0744,0.0589 -0.11308,0.12843 -0.0516,0.0927 -4.92872,7.42178 -10.83786,16.28688 -5.909127,8.8651 -10.764047,16.17064 -10.788647,16.23474 -0.02461,0.0641 -0.01962,0.11635 0.01099,0.11635 0.09755,0 17.693317,-10.5122 17.857887,-10.66881 0.12936,-0.12308 0.49908,-2.12643 2.04843,-11.09997 1.03982,-6.02249 1.87108,-10.97004 1.84688,-10.99424 -0.006,-0.006 -0.0146,-0.007 -0.0246,-0.003 z m -30.493425,72.90977 c -0.211476,-7e-5 -0.432755,0.003 -0.664835,0.008 -1.958146,0.0458 -2.72693,0.20018 -3.972781,0.7981 -0.64562,0.30985 -0.912375,0.50081 -1.439605,1.03033 -0.776067,0.77943 -1.13018,1.35759 -1.501375,2.45271 -0.599335,1.76819 -0.709703,2.93796 -0.710901,7.51071 -5.37e-4,2.48763 0.03273,3.67784 0.126683,4.48103 0.380168,3.24996 1.323554,5.09113 3.073424,5.999 0.710547,0.36865 1.066679,0.48299 1.919646,0.6156 1.219827,0.18966 2.822715,0.11685 3.820969,-0.17334 0.612629,-0.1781 1.440528,-0.76345 1.864679,-1.31857 0.193321,-0.253 0.403332,-0.46012 0.466431,-0.46012 0.0825,0 0.138551,0.22585 0.19945,0.80437 l 0.08481,0.80437 2.083499,0.0222 c 1.68781,0.0184 2.102468,7.4e-4 2.180869,-0.0937 0.0711,-0.0856 0.09138,-1.67944 0.07538,-5.99176 l -0.02198,-5.87492 -3.830914,-0.0222 -3.831441,-0.0217 v 1.99065 1.99018 h 0.787332 c 0.499534,0 0.824955,0.0374 0.889413,0.10187 0.06685,0.0668 0.100511,0.42153 0.100511,1.03709 -0.0013,1.79485 -0.296192,2.77109 -0.936527,3.09776 -0.850043,0.43366 -1.85172,0.16601 -2.238975,-0.59821 -0.360187,-0.71091 -0.390881,-1.33516 -0.361211,-7.27896 0.02938,-5.88704 0.02383,-5.80956 0.435546,-6.37125 0.362746,-0.49487 1.247523,-0.71169 1.859967,-0.45578 0.676124,0.28251 0.98783,1.03922 0.98783,2.39718 v 0.8739 h 2.96349 2.963489 v -0.46302 c 0,-0.72672 -0.243748,-2.29004 -0.467479,-2.99829 -0.525919,-1.66479 -1.727186,-2.86606 -3.427303,-3.42753 -0.989881,-0.32686 -1.997755,-0.46544 -3.478082,-0.46591 z m -40.971641,0.4104 v 11.03575 c 0,6.0696 0.02497,11.06125 0.05601,11.09225 0.08034,0.0803 5.636925,0.0677 5.764173,-0.013 0.08258,-0.0524 0.110278,-1.76148 0.127208,-7.89406 0.02062,-7.46867 0.05267,-8.42642 0.2518,-7.51361 0.03354,0.15372 0.215395,1.21286 0.404659,2.35374 0.189263,1.14088 0.455451,2.6839 0.591547,3.42897 0.136097,0.74507 0.48308,2.72641 0.77058,4.40281 0.783295,4.56734 0.875538,5.0702 0.950138,5.18546 0.08969,0.13862 4.336166,0.15435 4.421416,0.0164 0.06553,-0.10603 0.347093,-1.66564 1.099857,-6.09122 0.304947,-1.79282 0.570963,-3.31658 0.591023,-3.38648 0.02006,-0.0699 0.266396,-1.49265 0.547049,-3.16149 0.280654,-1.66883 0.531836,-3.06943 0.558566,-3.11272 0.02673,-0.0432 0.08438,-0.0567 0.127732,-0.0299 0.04773,0.0295 0.07852,3.15199 0.07852,7.91627 v 7.86751 l 0.190551,0.0463 c 0.104775,0.0258 1.410013,0.0357 2.900147,0.0227 l 2.709071,-0.0237 0.02147,-11.07004 0.02147,-11.07052 h -4.439748 c -4.155412,0 -4.44199,0.01 -4.48214,0.14823 -0.04641,0.1603 -0.553823,3.4607 -0.764822,4.97447 -0.0714,0.51223 -0.227052,1.54058 -0.345505,2.28565 -0.424056,2.66731 -0.712734,4.58094 -0.769534,5.1 -0.06398,0.58466 -0.231969,0.91083 -0.364874,0.70878 -0.04275,-0.065 -0.10269,-0.36986 -0.13349,-0.67739 -0.0308,-0.30754 -0.299725,-2.29273 -0.597828,-4.41151 -0.298105,-2.11879 -0.619857,-4.46212 -0.714567,-5.20718 -0.09471,-0.74507 -0.221776,-1.69757 -0.282686,-2.11667 l -0.11098,-0.76189 -4.58841,-0.0217 z m 68.495286,0.002 v 11.03479 c 0,6.0692 0.0252,11.06046 0.0565,11.09176 h 5.4e-4 c 0.0313,0.0313 3.14611,0.0471 6.92161,0.0353 l 6.86456,-0.0217 v -2.45513 -2.45561 l -3.71784,-0.0222 c -2.57304,-0.0153 -3.75295,-0.0507 -3.83145,-0.11588 -0.15833,-0.13106 -0.16507,-3.52769 -0.008,-3.7399 0.0957,-0.12916 0.42636,-0.14525 3.45034,-0.16465 l 3.34407,-0.0212 v -2.28614 -2.28614 l -3.36868,-0.042 c -2.87058,-0.0361 -3.38036,-0.0613 -3.44876,-0.16947 -0.10998,-0.17437 -0.10544,-3.10047 0.005,-3.3073 0.0845,-0.15777 0.21479,-0.16415 3.68277,-0.16415 h 3.59535 v -2.45513 -2.45513 h -6.77347 z m 15.91731,0 v 11.03479 c 0,6.0692 0.0252,11.06046 0.0565,11.09176 h 5.3e-4 c 0.0313,0.0313 2.99317,0.0471 6.5824,0.0353 l 6.52585,-0.0217 v -2.45561 -2.45513 l -3.42888,-0.0425 -3.42887,-0.042 -0.0215,-8.57242 -0.022,-8.57242 h -3.13205 z m -59.901643,0.042 -0.02147,10.95513 c -0.01573,8.02585 0.0039,10.98632 0.07381,11.07052 0.07702,0.0928 0.666934,0.11446 3.069235,0.11346 1.635772,-7.4e-4 3.021849,-0.0315 3.080228,-0.0686 0.08442,-0.0536 0.101897,-2.32381 0.08481,-11.06907 l -0.02147,-11.00148 h -3.132578 z m 26.077241,0 v 8.3397 c 0,7.80479 0.01021,8.39373 0.159142,9.18609 0.29106,1.54858 0.780731,2.57173 1.613403,3.37055 0.909078,0.87214 2.287152,1.39042 4.182707,1.5735 2.48218,0.23974 4.76755,-0.0394 6.27876,-0.7672 1.80698,-0.87025 2.90737,-2.75656 3.22209,-5.52439 0.0556,-0.49018 0.0781,-3.56056 0.0623,-8.47345 l -0.0246,-7.7048 h -3.13257 -3.13258 l -0.0424,8.76314 c -0.0306,6.34125 -0.0694,8.82144 -0.13977,8.97461 -0.24686,0.53695 -0.97257,0.90479 -1.56314,0.7923 -0.61422,-0.11701 -0.90148,-0.36825 -1.11138,-0.97239 -0.0721,-0.20752 -0.11213,-2.64587 -0.14553,-8.92151 l -0.0461,-8.63615 h -3.090172 z m -14.484507,25.35704 c -0.01045,0.0175 0.01946,0.0896 0.105223,0.0869 -0.03551,-0.0352 -0.07395,-0.0758 -0.08847,-0.0869 z"
         inkscape:connector-curvature="0" />
    </g>
  </g>
</svg>
